<svg width="20" height="20" viewBox="0 0 20 20" fill="none" xmlns="http://www.w3.org/2000/svg">
<path d="M8.18971 4.16667L6.52304 5.83333H3.33268V15.8333H16.666V5.83333H13.4757L11.809 4.16667H8.18971ZM7.49935 2.5H12.4993L14.166 4.16667H17.4993C17.9596 4.16667 18.3327 4.53977 18.3327 5V16.6667C18.3327 17.1269 17.9596 17.5 17.4993 17.5H2.49935C2.03912 17.5 1.66602 17.1269 1.66602 16.6667V5C1.66602 4.53977 2.03912 4.16667 2.49935 4.16667H5.83268L7.49935 2.5ZM9.99935 15C7.46804 15 5.41602 12.948 5.41602 10.4167C5.41602 7.88536 7.46804 5.83333 9.99935 5.83333C12.5307 5.83333 14.5827 7.88536 14.5827 10.4167C14.5827 12.948 12.5307 15 9.99935 15ZM9.99935 13.3333C11.6102 13.3333 12.916 12.0275 12.916 10.4167C12.916 8.80583 11.6102 7.5 9.99935 7.5C8.38852 7.5 7.08268 8.80583 7.08268 10.4167C7.08268 12.0275 8.38852 13.3333 9.99935 13.3333Z" fill="#A3A3A3"/>
</svg>
