<svg width="20" height="20" viewBox="0 0 20 20" fill="none" xmlns="http://www.w3.org/2000/svg">
<path opacity="0.4" d="M12.5504 14.6388L11.3863 14.0566C10.3753 15.0255 9.00753 15.6248 7.5 15.6248C5.99247 15.6248 4.62463 15.0255 3.6137 14.0567L2.44995 14.6388C1.7099 15.0083 1.25 15.752 1.25 16.5797C1.25 17.7763 2.22351 18.7498 3.4201 18.7498H11.5799C12.7765 18.7498 13.75 17.7763 13.75 16.5797C13.75 15.752 13.2901 15.0083 12.5504 14.6388Z" fill="#5C5C5C"/>
<path opacity="0.4" d="M7.5 5C4.74312 5 2.5 7.24312 2.5 10C2.5 12.7569 4.74312 15 7.5 15C10.2569 15 12.5 12.7569 12.5 10C12.5 7.24312 10.2569 5 7.5 5ZM7.5 13.125C5.77698 13.125 4.375 11.723 4.375 10C4.375 8.27698 5.77698 6.875 7.5 6.875C9.22302 6.875 10.625 8.27698 10.625 10C10.625 11.723 9.22302 13.125 7.5 13.125Z" fill="#5C5C5C"/>
<path d="M7.5 7.5C6.12152 7.5 5 8.62152 5 10C5 11.3785 6.12152 12.5 7.5 12.5C8.87848 12.5 10 11.3785 10 10C10 8.62152 8.87848 7.5 7.5 7.5ZM9.0625 10.3125C8.88977 10.3125 8.75 10.1727 8.75 10C8.75 9.31061 8.18939 8.75 7.5 8.75C7.32727 8.75 7.1875 8.61023 7.1875 8.4375C7.1875 8.26477 7.32727 8.125 7.5 8.125C8.53394 8.125 9.375 8.96606 9.375 10C9.375 10.1727 9.23523 10.3125 9.0625 10.3125Z" fill="#5C5C5C"/>
<path d="M18.8366 3.58559C19.0545 3.36776 19.0545 3.01488 18.8366 2.79706C17.6775 1.63823 16.1375 1 14.5 1C12.8625 1 11.3225 1.63823 10.1634 2.79706C9.94554 3.01488 9.94554 3.36776 10.1634 3.58559C10.3812 3.80341 10.7341 3.80341 10.9519 3.58559C11.9003 2.6375 13.1604 2.11527 14.5 2.11527C15.8396 2.11527 17.0997 2.6375 18.0481 3.58559C18.157 3.6945 18.2997 3.74896 18.4424 3.74896C18.585 3.74896 18.7277 3.6945 18.8366 3.58559Z" fill="#5C5C5C"/>
<path d="M17.2574 5.1653C17.4761 4.94857 17.4777 4.59569 17.261 4.37677C16.5282 3.6378 15.5478 3.23047 14.5003 3.23047C13.4528 3.23047 12.4723 3.6378 11.7396 4.37677C11.5229 4.59569 11.5245 4.94857 11.7432 5.1653C11.9626 5.38204 12.3152 5.38095 12.532 5.16204C13.0534 4.63544 13.7526 4.34573 14.5003 4.34573C15.248 4.34573 15.9472 4.63544 16.4686 5.16204C16.5778 5.27204 16.7213 5.32704 16.8648 5.32704C17.0066 5.32704 17.1485 5.27313 17.2574 5.1653Z" fill="#5C5C5C"/>
<path d="M15.6756 6.74703C15.8962 6.53193 15.9008 6.17905 15.686 5.9585C15.0614 5.31592 13.939 5.31592 13.3144 5.9585C13.0996 6.17905 13.1042 6.53193 13.3247 6.74703C13.5456 6.96213 13.8984 6.95669 14.1133 6.73614C14.3148 6.53029 14.6856 6.53029 14.8871 6.73614C14.9963 6.84832 15.1414 6.90495 15.2865 6.90495C15.4268 6.90495 15.5673 6.85213 15.6756 6.74703Z" fill="#5C5C5C"/>
</svg>
