<svg width="20" height="20" viewBox="0 0 20 20" fill="none" xmlns="http://www.w3.org/2000/svg">
<path d="M9.16602 15.8333V7.5H3.33268V15.8333H9.16602ZM9.16602 5.83333V3.33333C9.16602 2.8731 9.5391 2.5 9.99935 2.5H17.4993C17.9596 2.5 18.3327 2.8731 18.3327 3.33333V16.6667C18.3327 17.1269 17.9596 17.5 17.4993 17.5H2.49935C2.03912 17.5 1.66602 17.1269 1.66602 16.6667V6.66667C1.66602 6.20643 2.03912 5.83333 2.49935 5.83333H9.16602ZM10.8327 4.16667V15.8333H16.666V4.16667H10.8327ZM4.16602 13.3333H8.33268V15H4.16602V13.3333ZM11.666 13.3333H15.8327V15H11.666V13.3333ZM11.666 10.8333H15.8327V12.5H11.666V10.8333ZM11.666 8.33333H15.8327V10H11.666V8.33333ZM4.16602 10.8333H8.33268V12.5H4.16602V10.8333Z" fill="#E97132"/>
</svg>
