<svg width="20" height="20" viewBox="0 0 20 20" fill="none" xmlns="http://www.w3.org/2000/svg">
<path d="M12.4499 16.0016C12.2176 17.1419 11.2091 18 10.0002 18C8.79126 18 7.78275 17.1419 7.55052 16.0016H12.4499ZM9.99783 2C13.1468 2 15.7417 4.33488 15.9823 7.3554L15.9957 7.57762L16.0002 7.80214L15.9992 11.408L16.9529 13.9951L16.9786 14.0796L16.994 14.1664L16.9992 14.2546C16.9992 14.5697 16.8035 14.845 16.4773 14.9618L16.3638 14.9947L16.2492 15.0046H3.75154C3.66305 15.0046 3.57525 14.9889 3.49221 14.9583C3.20531 14.8526 3.01655 14.5865 3.00977 14.2422L3.01436 14.1247L3.04781 13.9952L3.99919 11.411L4.00028 7.79281L4.00458 7.56824C4.12719 4.45115 6.77122 2 9.99783 2Z" fill="#E97132"/>
</svg>
