<svg width="50" height="20" viewBox="0 0 50 20" fill="none" xmlns="http://www.w3.org/2000/svg">
<circle cx="8" cy="10" r="3" fill="#1FC16B"/>
<g clip-path="url(#clip0_2874_21743)">
<path d="M20 13.361V4.30078H22.256V11.4574H25.784V13.361H20Z" fill="#171717"/>
<path d="M37.256 5.97548V8.42126H39.32C40.124 8.42126 40.532 8.01162 40.532 7.2044C40.532 6.38512 40.136 5.98753 39.32 5.98753H37.256V5.97548ZM35 13.361V4.30078H39.512C41.696 4.30078 42.788 5.28873 42.788 7.27668C42.788 7.86705 42.62 8.37307 42.284 8.80681C41.948 9.24054 41.492 9.55379 40.928 9.72247L42.992 13.361H40.472L38.696 10.096H37.256V13.361H35Z" fill="#171717"/>
<path d="M47.8889 10.5424V10.0725L46.5569 10.458C45.9209 10.6387 45.6089 10.9279 45.6089 11.3375C45.6089 11.8436 45.9209 12.0966 46.5329 12.0966C46.9409 12.0966 47.2649 11.964 47.5169 11.699C47.7569 11.4219 47.8889 11.0363 47.8889 10.5424ZM49.7849 8.37368V11.952C49.7849 12.5905 49.8449 13.0604 49.9649 13.3616H48.1409C48.0689 13.1448 48.0329 12.9159 48.0209 12.6628H47.9969C47.8409 12.9159 47.5409 13.1327 47.1209 13.3014C46.7369 13.458 46.3529 13.5424 45.9689 13.5424C45.2969 13.5424 44.7689 13.3737 44.3609 13.0243C43.9289 12.6628 43.7129 12.1568 43.7129 11.5303C43.7129 10.7592 44.0249 10.1689 44.6369 9.77127C45.1649 9.43392 46.0049 9.18091 47.1689 9.02428L47.8889 8.9279V8.36163C47.8889 7.87971 47.5769 7.63874 46.9529 7.63874C46.6289 7.63874 46.3889 7.71103 46.2329 7.84356C46.0769 7.97609 45.9689 8.21706 45.9209 8.54236H44.0009C44.0369 7.12067 44.9729 6.42188 46.7849 6.42188C47.7689 6.42188 48.5009 6.55441 48.9809 6.83151C49.5209 7.13272 49.7849 7.65079 49.7849 8.37368Z" fill="#171717"/>
<path d="M30.0802 7.92725C29.5402 7.92725 29.1322 8.12002 28.8562 8.51761C28.6042 8.87906 28.4722 9.36099 28.4722 9.97545C28.4722 10.5899 28.6042 11.0718 28.8562 11.4333C29.1322 11.8309 29.5402 12.0236 30.0802 12.0236C31.1602 12.0236 31.6882 11.3128 31.6882 9.89111C31.6882 9.31279 31.5562 8.84291 31.3042 8.49352C31.0282 8.12002 30.6202 7.92725 30.0802 7.92725ZM30.0802 6.40918C31.1602 6.40918 32.0242 6.72243 32.6842 7.34894C33.3442 7.97544 33.6682 8.85496 33.6682 9.97545C33.6682 11.0959 33.3442 11.9754 32.6842 12.602C32.0242 13.2285 31.1602 13.5417 30.0802 13.5417C29.0002 13.5417 28.1362 13.2285 27.4762 12.602C26.8162 11.9754 26.4922 11.0959 26.4922 9.97545C26.4922 8.85496 26.8162 7.97544 27.4762 7.34894C28.1482 6.72243 29.0122 6.40918 30.0802 6.40918Z" fill="#171717"/>
<path d="M30.0204 5.06044C31.0044 5.06044 31.9284 5.3496 32.6964 5.85562L33.0804 5.3014C32.1924 4.72309 31.1484 4.38574 30.0204 4.38574C28.9404 4.38574 27.9324 4.699 27.0684 5.22912L27.4524 5.78333C28.2084 5.31345 29.0844 5.06044 30.0204 5.06044Z" fill="#009FE3"/>
<path d="M25.8672 3.49356L26.3832 4.2285C27.4392 3.5538 28.6872 3.16826 30.0192 3.16826C31.4112 3.16826 32.6952 3.58995 33.7752 4.30079L34.2912 3.56585C33.0672 2.74658 31.5912 2.26465 30.0192 2.26465C28.4952 2.26465 27.0672 2.72248 25.8672 3.49356Z" fill="#009FE3"/>
<path d="M30.0208 1.24093C31.8208 1.24093 33.4888 1.7831 34.8928 2.72286L35.5408 1.79515C33.9688 0.722856 32.0608 0.108398 30.0208 0.108398C28.0408 0.108398 26.1808 0.69876 24.6328 1.71081L25.2808 2.63852C26.6488 1.759 28.2688 1.24093 30.0208 1.24093Z" fill="#009FE3"/>
<path d="M30.1518 14.9153C29.1678 14.9153 28.2438 14.6261 27.4758 14.1201L27.0918 14.6743C27.9798 15.2526 29.0238 15.59 30.1638 15.59C31.2438 15.59 32.2518 15.2767 33.1158 14.7466L32.7318 14.1924C31.9638 14.6623 31.0878 14.9153 30.1518 14.9153Z" fill="#009FE3"/>
<path d="M34.3049 16.482L33.7889 15.7471C32.7329 16.4218 31.4849 16.8073 30.1529 16.8073C28.7609 16.8073 27.4769 16.3856 26.3969 15.6748L25.8809 16.4097C27.1049 17.229 28.5689 17.7109 30.1529 17.7109C31.6769 17.7109 33.1049 17.2531 34.3049 16.482Z" fill="#009FE3"/>
<path d="M30.1528 18.7349C28.3528 18.7349 26.6848 18.1927 25.2808 17.2529L24.6328 18.1806C26.2048 19.2409 28.1128 19.8674 30.1528 19.8674C32.1328 19.8674 33.9928 19.277 35.5408 18.265L34.8928 17.3373C33.5248 18.2168 31.8928 18.7349 30.1528 18.7349Z" fill="#009FE3"/>
</g>
<defs>
<clipPath id="clip0_2874_21743">
<rect width="30" height="20" fill="white" transform="translate(20)"/>
</clipPath>
</defs>
</svg>
