<svg width="20" height="20" viewBox="0 0 20 20" fill="none" xmlns="http://www.w3.org/2000/svg">
<path opacity="0.4" d="M6.73423 5.65079C6.43431 5.35078 5.94959 5.35078 5.64968 5.65079C3.24959 8.04309 3.24959 11.9508 5.64968 14.3508C5.93743 14.6386 6.42835 14.6568 6.73423 14.3508C7.03433 14.0508 7.03433 13.5662 6.73423 13.2661C4.93416 11.4662 4.93416 8.5354 6.73423 6.73538C7.03433 6.43537 7.03433 5.9508 6.73423 5.65079Z" fill="#5C5C5C"/>
<path opacity="0.4" d="M16.5264 16.5279C20.1264 12.9279 20.1264 7.07403 16.5264 3.47403C16.2265 3.17402 15.7418 3.17402 15.4419 3.47403C15.1418 3.77404 15.1418 4.25866 15.4419 4.55867C18.4418 7.55865 18.4418 12.4433 15.4419 15.4356C15.1418 15.7356 15.1418 16.2279 15.4419 16.5279C15.748 16.8341 16.2389 16.8155 16.5264 16.5279Z" fill="#5C5C5C"/>
<path opacity="0.4" d="M13.266 14.3508C13.5542 14.6392 14.045 14.6562 14.3507 14.3508C16.7506 11.9508 16.7506 8.05079 14.3507 5.65079C14.0506 5.35078 13.5661 5.35078 13.266 5.65079C12.966 5.9508 12.966 6.43537 13.266 6.73538C15.066 8.53541 15.066 11.4662 13.266 13.2661C12.966 13.5662 12.966 14.0508 13.266 14.3508Z" fill="#5C5C5C"/>
<path opacity="0.4" d="M3.4734 16.5279C3.79842 16.8368 4.27229 16.8137 4.55795 16.5279C4.85805 16.2279 4.85805 15.7356 4.55795 15.4356C1.55802 12.4433 1.55802 7.55865 4.55795 4.55867C4.85805 4.25866 4.85805 3.77404 4.55795 3.47403C4.25803 3.17402 3.7735 3.17402 3.4734 3.47403C-0.126549 7.07403 -0.126549 12.9279 3.4734 16.5279Z" fill="#5C5C5C"/>
<path d="M10.0039 7.46387C8.60427 7.46387 7.4707 8.60391 7.4707 9.99715C7.4707 11.3968 8.60427 12.5305 10.0039 12.5305C11.3972 12.5305 12.5372 11.3968 12.5372 9.99715C12.5372 8.60391 11.3972 7.46387 10.0039 7.46387Z" fill="#5C5C5C"/>
</svg>
