<svg width="20" height="20" viewBox="0 0 20 20" fill="none" xmlns="http://www.w3.org/2000/svg">
<path opacity="0.4" d="M16.875 10.625H3.125C1.74652 10.625 0.625 11.7462 0.625 13.125V15.625C0.625 17.0038 1.74652 18.125 3.125 18.125H16.875C18.2535 18.125 19.375 17.0038 19.375 15.625V13.125C19.375 11.7462 18.2535 10.625 16.875 10.625Z" fill="#5C5C5C"/>
<path d="M7.5 15H4.375C4.02985 15 3.75 14.7205 3.75 14.375C3.75 14.0295 4.02985 13.75 4.375 13.75H7.5C7.84515 13.75 8.125 14.0295 8.125 14.375C8.125 14.7205 7.84515 15 7.5 15Z" fill="#5C5C5C"/>
<path d="M13.125 15C13.4702 15 13.75 14.7202 13.75 14.375C13.75 14.0298 13.4702 13.75 13.125 13.75C12.7798 13.75 12.5 14.0298 12.5 14.375C12.5 14.7202 12.7798 15 13.125 15Z" fill="#5C5C5C"/>
<path d="M15.625 15C15.9702 15 16.25 14.7202 16.25 14.375C16.25 14.0298 15.9702 13.75 15.625 13.75C15.2798 13.75 15 14.0298 15 14.375C15 14.7202 15.2798 15 15.625 15Z" fill="#5C5C5C"/>
<path d="M14.8612 4.77295C15.1053 4.52881 15.1053 4.1333 14.8612 3.88916C13.5621 2.59033 11.836 1.875 10.0007 1.875C8.16534 1.875 6.43927 2.59033 5.14014 3.88916C4.896 4.1333 4.896 4.52881 5.14014 4.77295C5.38428 5.01709 5.77979 5.01709 6.02393 4.77295C7.08685 3.71033 8.49921 3.125 10.0007 3.125C11.5021 3.125 12.9145 3.71033 13.9774 4.77295C14.0995 4.89502 14.2594 4.95605 14.4193 4.95605C14.5792 4.95605 14.7391 4.89502 14.8612 4.77295Z" fill="#5C5C5C"/>
<path d="M13.09 6.54358C13.3351 6.30066 13.3369 5.90515 13.094 5.65979C12.2727 4.83154 11.1738 4.375 9.9998 4.375C8.82579 4.375 7.72685 4.83154 6.90562 5.65979C6.6627 5.90515 6.66453 6.30066 6.90959 6.54358C7.15556 6.7865 7.55076 6.78528 7.79368 6.53992C8.3781 5.94971 9.16179 5.625 9.9998 5.625C10.8378 5.625 11.6215 5.94971 12.2059 6.53992C12.3283 6.66321 12.4891 6.72485 12.6499 6.72485C12.8089 6.72485 12.9679 6.66443 13.09 6.54358Z" fill="#5C5C5C"/>
<path d="M11.3179 8.31653C11.5651 8.07544 11.5703 7.67993 11.3295 7.43274C10.6294 6.71252 9.37146 6.71252 8.67139 7.43274C8.4306 7.67993 8.43579 8.07544 8.68298 8.31653C8.93048 8.55762 9.32599 8.55151 9.56677 8.30432C9.7926 8.07361 10.2083 8.07361 10.4341 8.30432C10.5565 8.43005 10.7191 8.49353 10.8818 8.49353C11.0389 8.49353 11.1964 8.43433 11.3179 8.31653Z" fill="#5C5C5C"/>
</svg>
