<svg width="161" height="64" viewBox="0 0 161 64" fill="none" xmlns="http://www.w3.org/2000/svg">
<path d="M30.9375 25.29H35.2799L40.9467 33.588V25.29H45.3302V40.2898H40.9467L35.3107 32.0532V40.2898H30.9375V25.29Z" fill="#92D050"/>
<path d="M48.4062 25.29H60.869V28.4926H53.0669V30.8766H60.3043V33.9359H53.0669V36.8929H61.0948V40.2898H48.4062V25.29Z" fill="#E97132"/>
<path d="M97.4883 25.29H102.139V30.9584L107.015 25.29H113.195L107.713 30.9482L113.441 40.2898H107.713L104.541 34.1201L102.139 36.6269V40.2898H97.4883V25.29Z" fill="#92D050"/>
<path d="M79.3691 32.8001C79.3691 30.3513 80.0535 28.4448 81.4223 27.0805C82.7911 25.7163 84.6971 25.0342 87.1404 25.0342C89.6452 25.0342 91.5752 25.7061 92.9303 27.0498C94.2854 28.3868 94.9629 30.2626 94.9629 32.6773C94.9629 34.4304 94.6652 35.8696 94.0698 36.9951C93.4812 38.1138 92.6257 38.9869 91.5033 39.6145C90.3878 40.2352 88.9951 40.5456 87.3251 40.5456C85.6279 40.5456 84.2214 40.2761 83.1059 39.7373C81.9972 39.1984 81.0972 38.3457 80.406 37.1793C79.7148 36.0129 79.3691 34.5532 79.3691 32.8001ZM84.0196 32.8206C84.0196 34.3349 84.3002 35.4229 84.8614 36.0845C85.4294 36.7462 86.1993 37.077 87.1712 37.077C88.1704 37.077 88.9437 36.753 89.4912 36.105C90.0387 35.457 90.3125 34.2939 90.3125 32.6159C90.3125 31.2039 90.0251 30.1739 89.4502 29.5259C88.8821 28.8711 88.1088 28.5437 87.1301 28.5437C86.1925 28.5437 85.4397 28.8745 84.8716 29.5362C84.3036 30.1978 84.0196 31.2926 84.0196 32.8206Z" fill="#92D050"/>
<path d="M63.6523 25.29H70.5612C71.9232 25.29 73.0216 25.4742 73.8566 25.8426C74.6984 26.2109 75.393 26.7395 75.9405 27.4285C76.488 28.1174 76.885 28.9189 77.1314 29.833C77.3777 30.747 77.5009 31.7156 77.5009 32.7388C77.5009 34.3418 77.3161 35.5866 76.9466 36.4734C76.5838 37.3533 76.0774 38.0934 75.4272 38.6937C74.7771 39.2871 74.079 39.6827 73.333 39.8806C72.3133 40.1534 71.3893 40.2898 70.5612 40.2898H63.6523V25.29ZM68.3028 28.687V36.8827H69.4423C70.4141 36.8827 71.1053 36.7769 71.516 36.5655C71.9266 36.3472 72.2483 35.972 72.4809 35.44C72.7136 34.9011 72.83 34.0314 72.83 32.8309C72.83 31.2415 72.5699 30.1535 72.0498 29.5669C71.5296 28.9803 70.6673 28.687 69.4628 28.687H68.3028Z" fill="#92D050"/>
<path fill-rule="evenodd" clip-rule="evenodd" d="M119.126 23.8658C117.701 23.3499 116.129 24.074 115.615 25.4832C115.102 26.8924 115.842 28.453 117.267 28.9689C118.693 29.4848 120.265 28.7607 120.778 27.3515C121.292 25.9423 120.552 24.3817 119.126 23.8658Z" fill="#92D050"/>
<path d="M117.295 28.89C115.913 28.3896 115.196 26.8766 115.694 25.5114C116.191 24.1462 117.714 23.4436 119.097 23.944C120.48 24.4444 121.196 25.9574 120.699 27.3226C120.202 28.6878 118.678 29.3904 117.295 28.89ZM117.238 29.0471C118.707 29.5785 120.327 28.8329 120.857 27.3797C121.386 25.9265 120.623 24.3183 119.154 23.7869C117.686 23.2554 116.065 24.0011 115.536 25.4543C115.007 26.9075 115.77 28.5157 117.238 29.0471Z" fill="#92D050"/>
<path fill-rule="evenodd" clip-rule="evenodd" d="M121.073 26.541L122.788 27.5946L122.509 28.3599L120.516 28.0716L121.073 26.541Z" fill="#92D050"/>
<path d="M122.891 27.5592L122.565 28.4524L120.402 28.1396L121.03 26.416L122.891 27.5592ZM120.63 28.0037L122.454 28.2674L122.686 27.63L121.117 26.666L120.63 28.0037Z" fill="#92D050"/>
<path fill-rule="evenodd" clip-rule="evenodd" d="M117.921 32.4085C116.9 33.5264 116.974 35.2508 118.086 36.26C119.199 37.2692 120.928 37.1812 121.949 36.0633C122.97 34.9454 122.896 33.221 121.784 32.2118C120.672 31.2025 118.942 31.2906 117.921 32.4085Z" fill="#92D050"/>
<path d="M121.886 36.0064C120.896 37.0906 119.22 37.1753 118.142 36.1976C117.064 35.2198 116.992 33.5484 117.982 32.4641C118.973 31.3799 120.649 31.2952 121.727 32.2729C122.804 33.2506 122.877 34.9221 121.886 36.0064ZM122.01 36.1189C123.062 34.9673 122.987 33.1901 121.84 32.1493C120.693 31.1086 118.91 31.2001 117.858 32.3516C116.807 33.5031 116.882 35.2804 118.029 36.3211C119.176 37.3619 120.959 37.2704 122.01 36.1189Z" fill="#92D050"/>
<path fill-rule="evenodd" clip-rule="evenodd" d="M121.143 31.6309L122.773 30.4512L123.376 30.9993L122.351 32.7271L121.143 31.6309Z" fill="#92D050"/>
<path d="M123.485 30.9835L122.372 32.8582L121.012 31.6238L122.78 30.3438L123.485 30.9835ZM121.277 31.6384L122.333 32.5964L123.271 31.0154L122.768 30.5589L121.277 31.6384Z" fill="#92D050"/>
<path fill-rule="evenodd" clip-rule="evenodd" d="M122.352 21.6205C122.352 20.1102 123.569 18.8857 125.071 18.8857C126.573 18.8857 127.791 20.1102 127.791 21.6205C127.791 23.1309 126.573 24.3554 125.071 24.3554C123.569 24.3554 122.352 23.1309 122.352 21.6205Z" fill="#92D050"/>
<path d="M127.707 21.6201C127.707 20.1552 126.526 18.9689 125.071 18.9689C123.616 18.9689 122.435 20.1552 122.435 21.6201C122.435 23.0851 123.616 24.2714 125.071 24.2714C126.526 24.2714 127.707 23.0851 127.707 21.6201ZM127.874 21.6201C127.874 23.176 126.62 24.4385 125.071 24.4385C123.522 24.4385 122.268 23.176 122.268 21.6201C122.268 20.0643 123.522 18.8018 125.071 18.8018C126.62 18.8018 127.874 20.0643 127.874 21.6201Z" fill="#92D050"/>
<path fill-rule="evenodd" clip-rule="evenodd" d="M124.205 24.3552L124.614 26.3242H125.431L125.839 24.3552H124.205Z" fill="#92D050"/>
<path d="M125.498 26.4072L125.942 24.271H124.102L124.545 26.4072H125.498ZM124.307 24.4382H125.736L125.362 26.2401H124.681L124.307 24.4382Z" fill="#92D050"/>
<path fill-rule="evenodd" clip-rule="evenodd" d="M123.789 28.9372C123.789 28.2055 124.362 27.6123 125.07 27.6123C125.777 27.6123 126.35 28.2055 126.35 28.9372C126.35 29.6689 125.777 30.262 125.07 30.262C124.362 30.262 123.789 29.6689 123.789 28.9372Z" fill="#E97132"/>
<path d="M126.268 28.9377C126.268 28.2492 125.729 27.6964 125.071 27.6964C124.414 27.6964 123.875 28.2492 123.875 28.9377C123.875 29.6262 124.414 30.179 125.071 30.179C125.729 30.179 126.268 29.6262 126.268 28.9377ZM126.436 28.9377C126.436 29.7126 125.828 30.3461 125.071 30.3461C124.315 30.3461 123.707 29.7126 123.707 28.9377C123.707 28.1628 124.315 27.5293 125.071 27.5293C125.828 27.5293 126.436 28.1628 126.436 28.9377Z" fill="#E97132"/>
<path d="M125.571 30.165H124.547V38.4059H125.571V30.165Z" fill="#E97132"/>
<path d="M125.655 30.0811V38.4891H124.463V30.0811H125.655ZM124.631 38.3219H125.487V30.2482H124.631V38.3219Z" fill="#E97132"/>
<path fill-rule="evenodd" clip-rule="evenodd" d="M130.975 23.8656C132.401 23.3497 133.973 24.0738 134.486 25.483C134.999 26.8922 134.26 28.4528 132.834 28.9687C131.408 29.4846 129.836 28.7605 129.323 27.3513C128.81 25.9421 129.549 24.3815 130.975 23.8656Z" fill="#92D050"/>
<path d="M130.946 23.7866C132.415 23.2552 134.036 24.0009 134.565 25.4541L134.577 25.4882C135.082 26.9323 134.32 28.5196 132.863 29.0469C131.394 29.5783 129.774 28.8326 129.244 27.3794V27.3794C128.715 25.9262 129.478 24.3181 130.946 23.7866ZM134.407 25.5111C133.91 24.1459 132.386 23.4433 131.004 23.9437V23.9437C129.621 24.4441 128.905 25.9572 129.402 27.3224L129.414 27.3542C129.923 28.6985 131.433 29.3862 132.805 28.8898C134.188 28.3894 134.904 26.8763 134.407 25.5111H134.407Z" fill="#92D050"/>
<path fill-rule="evenodd" clip-rule="evenodd" d="M129.028 26.541L127.313 27.5946L127.592 28.3599L129.586 28.0716L129.028 26.541Z" fill="#92D050"/>
<path d="M127.537 28.452L129.7 28.1392L129.072 26.4156L127.212 27.5588L127.537 28.452ZM128.985 26.6656L129.472 28.0032L127.648 28.267L127.416 27.6296L128.985 26.6656Z" fill="#92D050"/>
<path fill-rule="evenodd" clip-rule="evenodd" d="M132.182 32.4084C133.202 33.5263 133.129 35.2507 132.016 36.2599C130.904 37.2691 129.175 37.181 128.153 36.0632C127.132 34.9453 127.206 33.2209 128.319 32.2117C129.431 31.2024 131.161 31.2905 132.182 32.4084Z" fill="#92D050"/>
<path d="M128.289 32.1253C129.437 31.1102 131.2 31.2092 132.243 32.3517C133.295 33.5033 133.22 35.2805 132.073 36.3213H132.073C130.934 37.3539 129.171 37.2719 128.116 36.1458L128.091 36.119C127.04 34.9675 127.115 33.1902 128.262 32.1495L128.289 32.1253ZM132.119 32.4643C131.137 31.3885 129.479 31.2967 128.4 32.2503L128.375 32.2731C127.297 33.2508 127.225 34.9223 128.215 36.0065L128.239 36.0317C129.232 37.092 130.89 37.1678 131.96 36.1977C133.037 35.22 133.11 33.5485 132.119 32.4643Z" fill="#92D050"/>
<path fill-rule="evenodd" clip-rule="evenodd" d="M128.959 31.6306L127.329 30.4508L126.725 30.9989L127.751 32.7268L128.959 31.6306Z" fill="#92D050"/>
<path d="M126.618 30.983L127.731 32.8577L129.091 31.6233L127.323 30.3433L126.618 30.983ZM128.826 31.6379L127.77 32.5959L126.831 31.0149L127.335 30.5584L128.826 31.6379Z" fill="#92D050"/>
</svg>
