<svg width="20" height="20" viewBox="0 0 20 20" fill="none" xmlns="http://www.w3.org/2000/svg">
<path d="M9.16602 1.66699C13.306 1.66699 16.666 5.02699 16.666 9.16699C16.666 13.307 13.306 16.667 9.16602 16.667C5.02602 16.667 1.66602 13.307 1.66602 9.16699C1.66602 5.02699 5.02602 1.66699 9.16602 1.66699ZM9.16602 15.0003C12.3889 15.0003 14.9993 12.3899 14.9993 9.16699C14.9993 5.94408 12.3889 3.33366 9.16602 3.33366C5.9431 3.33366 3.33268 5.94408 3.33268 9.16699C3.33268 12.3899 5.9431 15.0003 9.16602 15.0003ZM16.2371 15.0596L18.5941 17.4166L17.4156 18.5951L15.0586 16.2381L16.2371 15.0596Z" fill="#A3A3A3"/>
</svg>
