<svg width="16" height="16" viewBox="0 0 16 16" fill="none" xmlns="http://www.w3.org/2000/svg">
<path d="M2.22631 11.3331C1.93814 10.834 1.72185 10.3131 1.57422 9.78241C2.22253 9.45161 2.66648 8.77754 2.66648 7.99981C2.66648 7.22267 2.2232 6.54901 1.57569 6.21795C1.8735 5.14401 2.43905 4.14385 3.24316 3.32635C3.8538 3.72245 4.65957 3.7699 5.33315 3.38101C6.00673 2.99211 6.36851 2.27057 6.3308 1.5437C7.44087 1.25607 8.5898 1.26637 9.66873 1.54542C9.63167 2.27171 9.9934 2.99242 10.6665 3.38101C11.3401 3.76989 12.1458 3.72245 12.7564 3.32639C13.1422 3.71958 13.4851 4.16735 13.7733 4.66648C14.0615 5.16561 14.2778 5.68651 14.4254 6.21719C13.7771 6.54799 13.3331 7.22207 13.3331 7.99981C13.3331 8.77701 13.7764 9.45061 14.4239 9.78167C14.1261 10.8556 13.5606 11.8557 12.7565 12.6733C12.1458 12.2772 11.3401 12.2297 10.6665 12.6186C9.99287 13.0075 9.63113 13.7291 9.6688 14.4559C8.5588 14.7435 7.40987 14.7333 6.33089 14.4542C6.36794 13.7279 6.00619 13.0072 5.33315 12.6186C4.65959 12.2297 3.85386 12.2771 3.24323 12.6732C2.85745 12.28 2.51448 11.8323 2.22631 11.3331ZM5.99981 11.4639C6.7274 11.884 7.24993 12.5481 7.5002 13.3103C7.8324 13.3419 8.1668 13.3423 8.49907 13.3113C8.7492 12.5488 9.27187 11.8842 9.9998 11.4639C10.7277 11.0436 11.5647 10.9233 12.3501 11.0879C12.5431 10.8157 12.7099 10.5258 12.8486 10.2223C12.3137 9.62454 11.9998 8.83994 11.9998 7.99981C11.9998 7.15967 12.3137 6.37514 12.8486 5.77734C12.7792 5.62667 12.7025 5.47849 12.6186 5.33315C12.5347 5.1878 12.4447 5.04733 12.3489 4.91195C11.5638 5.07618 10.7274 4.95577 9.9998 4.53571C9.2722 4.11564 8.74973 3.45146 8.4994 2.68937C8.16727 2.65777 7.8328 2.65731 7.5006 2.68829C7.2504 3.45081 6.72773 4.11543 5.99981 4.53571C5.27187 4.95599 4.43497 5.0763 3.64952 4.91169C3.45657 5.18395 3.28975 5.47379 3.15104 5.77725C3.68587 6.37508 3.99981 7.15967 3.99981 7.99981C3.99981 8.83994 3.68589 9.62447 3.15104 10.2223C3.22045 10.3729 3.29709 10.5211 3.38101 10.6665C3.46493 10.8118 3.55493 10.9523 3.65075 11.0877C4.43585 10.9235 5.27225 11.0439 5.99981 11.4639ZM7.9998 9.99981C6.89527 9.99981 5.99981 9.10441 5.99981 7.99981C5.99981 6.89527 6.89527 5.99981 7.9998 5.99981C9.1044 5.99981 9.9998 6.89527 9.9998 7.99981C9.9998 9.10441 9.1044 9.99981 7.9998 9.99981ZM7.9998 8.66647C8.368 8.66647 8.66647 8.36801 8.66647 7.99981C8.66647 7.63161 8.368 7.33314 7.9998 7.33314C7.6316 7.33314 7.33313 7.63161 7.33313 7.99981C7.33313 8.36801 7.6316 8.66647 7.9998 8.66647Z" fill="#5C5C5C"/>
</svg>
